<svg width="24" height="24" viewBox="0 0 24 24" fill="none" xmlns="http://www.w3.org/2000/svg">
<g id="hand-thumbs-down">
<path id="Subtract" d="M13.2957 23.5117C11.8622 23.87 10.5313 22.7856 10.4345 21.382C10.3256 19.8046 10.0904 18.3583 9.79136 17.4956C9.60465 16.9569 9.07342 15.9777 8.23319 15.0387C7.39636 14.1036 6.30877 13.2707 5.03539 12.9233C4.02824 12.6486 3 11.7759 3 10.5005V4.49902C3 3.23238 4.02349 2.30325 5.17188 2.18147C6.77611 2.01135 7.5177 1.55865 8.27391 1.09702L8.34532 1.05346C8.75448 0.804116 9.21265 0.52956 9.80151 0.32679C10.3964 0.12194 11.093 0 12 0H17.25C18.6556 0 19.6484 0.716825 20.1512 1.59665C20.3972 2.02724 20.5312 2.50596 20.5312 2.96484C20.5312 3.19338 20.4971 3.43302 20.416 3.66156C20.7182 4.055 20.9873 4.5276 21.149 5.01283C21.3136 5.50665 21.4063 6.15507 21.1539 6.73521C21.2576 6.93123 21.3352 7.13862 21.393 7.34083C21.5088 7.74607 21.5625 8.19167 21.5625 8.625C21.5625 9.05833 21.5088 9.50393 21.393 9.90917C21.3413 10.0903 21.2736 10.2756 21.1855 10.4531C21.7774 11.3102 21.8132 12.2545 21.5364 13.053C21.2286 13.9411 20.5146 14.7024 19.7372 14.9615C18.4665 15.3851 17.0321 15.3753 15.9633 15.2782C15.726 15.2566 15.5029 15.2303 15.2991 15.2024C16.0048 18.1992 15.5355 20.7427 15.2049 21.9667C14.9988 22.7295 14.3815 23.2402 13.6878 23.4136L13.2957 23.5117ZM17.25 1.50002H12C11.234 1.50002 10.7054 1.602 10.2899 1.74508C9.8683 1.89025 9.53077 2.08765 9.12589 2.33438L9.06603 2.37089C8.23374 2.87865 7.2684 3.46758 5.33005 3.67313C4.83082 3.72607 4.5 4.10883 4.5 4.49904V10.5005C4.5 10.882 4.83884 11.3149 5.43014 11.4762C7.07319 11.9244 8.39527 12.9705 9.35098 14.0385C10.3033 15.1027 10.9475 16.2508 11.2086 17.0044C11.5726 18.0544 11.819 19.6563 11.9309 21.2787C11.9684 21.8222 12.472 22.1714 12.9319 22.0565L13.324 21.9584C13.5649 21.8982 13.7116 21.7428 13.7568 21.5756C14.0873 20.3519 14.5789 17.6084 13.5385 14.4872C13.4519 14.2275 13.5137 13.9413 13.6997 13.7404C13.8856 13.5397 14.1664 13.4561 14.4319 13.5224L14.4358 13.5234L14.4564 13.5283C14.4755 13.5328 14.5052 13.5397 14.5447 13.5484C14.6237 13.5658 14.7413 13.5904 14.8905 13.618C15.1894 13.6734 15.6113 13.74 16.0992 13.7844C17.0929 13.8747 18.2835 13.8649 19.2628 13.5385C19.5261 13.4508 19.9371 13.087 20.1191 12.5618C20.2789 12.1008 20.2479 11.5585 19.7197 11.0304L19.1893 10.5L19.7197 9.96969C19.7835 9.90587 19.8761 9.75825 19.9507 9.49711C20.0224 9.24609 20.0625 8.94169 20.0625 8.62502C20.0625 8.30836 20.0224 8.00395 19.9507 7.75294C19.8761 7.49179 19.7835 7.34418 19.7197 7.28035L19.1893 6.75002L19.7197 6.21969C19.7902 6.14914 19.8819 5.95505 19.726 5.48719C19.5795 5.04762 19.2722 4.58284 18.9697 4.28035L18.4393 3.75002L18.9697 3.21969C18.9775 3.21183 19.0312 3.14527 19.0312 2.96487C19.0312 2.79094 18.9778 2.56653 18.8488 2.34088C18.6016 1.9082 18.0944 1.50002 17.25 1.50002Z" fill="#0C3058"/>
</g>
</svg>
