<svg width="60" height="60" viewBox="0 0 60 60" fill="none" xmlns="http://www.w3.org/2000/svg">
<rect x="0.5" y="0.5" width="59" height="59" rx="29.5" fill="#0057CC"/>
<rect x="0.5" y="0.5" width="59" height="59" rx="29.5" stroke="#0057CC"/>
<path d="M25 41.6667C25 40.9119 25.5596 40.3 26.25 40.3H33.75C34.4404 40.3 35 40.9119 35 41.6667C35 42.4215 34.4404 43.0333 33.75 43.0333H26.25C25.5596 43.0333 25 42.4215 25 41.6667Z" fill="white"/>
<path d="M17.5 29.5349C17.5 25.9785 20.5868 23.2566 23.8255 23.588C25.5944 23.7689 27.6773 23.9 30 23.9C32.3227 23.9 34.4056 23.7689 36.1745 23.588C39.4132 23.2566 42.5 25.9785 42.5 29.5349V32.6992C42.5 33.9535 41.7188 35.0384 40.5885 35.2532C38.4759 35.6549 34.7365 36.2 30 36.2C25.2635 36.2 21.5241 35.6549 19.4115 35.2532C18.2812 35.0384 17.5 33.9535 17.5 32.6992V29.5349ZM28.8549 27.2757C28.6577 27.239 28.4564 27.3077 28.3133 27.4605L26.0107 29.9194C24.193 29.7998 22.6153 29.6128 21.3349 29.4208C20.9929 29.3696 20.6777 29.6311 20.6308 30.005C20.5839 30.3789 20.8231 30.7236 21.1651 30.7748C22.5393 30.9808 24.2449 31.1808 26.2151 31.3013C26.3901 31.312 26.5613 31.2419 26.6867 31.1079L28.5716 29.095L30.69 33.77C30.7803 33.9695 30.9539 34.1083 31.1551 34.1421C31.3563 34.1759 31.5599 34.1005 31.7009 33.9399L34.031 31.2858C35.8973 31.164 37.5182 30.9722 38.8349 30.7748C39.1769 30.7236 39.4161 30.3789 39.3692 30.005C39.3223 29.6311 39.0071 29.3696 38.6651 29.4208C37.3208 29.6224 35.6486 29.8185 33.7151 29.9368C33.5572 29.9465 33.4086 30.0212 33.2991 30.1459L31.4151 32.2918L29.31 27.646C29.2213 27.45 29.0521 27.3124 28.8549 27.2757Z" fill="white"/>
<path d="M31.25 12.601C31.9973 12.1284 32.5 11.2451 32.5 10.2333C32.5 8.72376 31.3807 7.5 30 7.5C28.6193 7.5 27.5 8.72376 27.5 10.2333C27.5 11.2451 28.0027 12.1284 28.75 12.601V15.7H23.75C17.5368 15.7 12.5 21.2069 12.5 28V29.3667C11.1193 29.3667 10 30.5904 10 32.1V37.5667C10 39.0762 11.1193 40.3 12.5 40.3V43.0333C12.5 46.0525 14.7386 48.5 17.5 48.5H42.5C45.2614 48.5 47.5 46.0525 47.5 43.0333V40.3C48.8807 40.3 50 39.0762 50 37.5667V32.1C50 30.5904 48.8807 29.3667 47.5 29.3667V28C47.5 21.2069 42.4632 15.7 36.25 15.7H31.25V12.601ZM45 28V43.0333C45 44.5429 43.8807 45.7667 42.5 45.7667H17.5C16.1193 45.7667 15 44.5429 15 43.0333V28C15 22.7165 18.9175 18.4333 23.75 18.4333H36.25C41.0825 18.4333 45 22.7165 45 28Z" fill="white"/>
</svg>
