<svg width="60" height="60" viewBox="0 0 60 60" fill="none" xmlns="http://www.w3.org/2000/svg">
    <rect width="60" height="60" rx="30" fill="#8596AF"/>
    <path d="M30 30C34.1421 30 37.5 26.6421 37.5 22.5C37.5 18.3579 34.1421 15 30 15C25.8579 15 22.5 18.3579 22.5 22.5C22.5 26.6421 25.8579 30 30 30ZM35 22.5C35 25.2614 32.7614 27.5 30 27.5C27.2386 27.5 25 25.2614 25 22.5C25 19.7386 27.2386 17.5 30 17.5C32.7614 17.5 35 19.7386 35 22.5Z" fill="white"/>
    <path d="M45 42.5C45 45 42.5 45 42.5 45H17.5C17.5 45 15 45 15 42.5C15 40 17.5 32.5 30 32.5C42.5 32.5 45 40 45 42.5ZM42.4999 42.4913C42.4964 41.8743 42.1156 40.0261 40.4197 38.3303C38.7891 36.6996 35.7227 35 30 35C24.2772 35 21.2109 36.6996 19.5802 38.3303C17.8844 40.0261 17.5036 41.8743 17.5 42.4913H42.4999Z" fill="white"/>
    </svg>
    